<?xml version="1.0" standalone="no"?>
<!DOCTYPE svg PUBLIC "-//W3C//DTD SVG 20010904//EN"
 "http://www.w3.org/TR/2001/REC-SVG-20010904/DTD/svg10.dtd">
<svg version="1.0" xmlns="http://www.w3.org/2000/svg"
 width="512.000000pt" height="512.000000pt" viewBox="0 0 512.000000 512.000000"
 preserveAspectRatio="xMidYMid meet">
<metadata>
Created by potrace 1.14, written by Peter Selinger 2001-2017
</metadata>
<g transform="translate(0.000000,512.000000) scale(0.100000,-0.100000)"
fill="#000000" stroke="none">
<path d="M1262 4428 c-43 -87 -46 -168 -6 -168 8 0 14 -5 14 -11 0 -5 4 -8 9
-4 5 3 12 2 15 -3 5 -9 81 -8 111 3 29 9 80 93 81 135 2 60 -47 95 -152 106
l-42 5 -30 -63z"/>
<path d="M910 4278 c0 -54 5 -63 52 -93 89 -57 128 -89 124 -101 -3 -8 -2 -14
2 -14 4 0 8 -10 8 -22 2 -25 12 -100 15 -108 1 -3 2 -9 3 -15 14 -80 70 -153
119 -156 97 -6 139 0 143 21 2 8 10 49 19 90 9 41 17 84 18 95 2 11 6 26 11
33 4 7 6 16 3 19 -11 10 16 63 32 63 9 0 21 4 27 10 5 5 19 11 31 13 11 1 28
9 37 16 9 7 16 11 16 7 0 -3 25 5 56 19 31 14 63 25 70 25 8 0 14 4 14 10 0 5
3 9 8 9 23 -4 30 5 30 41 1 52 -26 87 -54 72 -29 -17 -96 -44 -119 -49 -10 -2
-22 -8 -26 -14 -3 -6 -9 -10 -13 -10 -3 1 -8 0 -11 0 -3 -1 -8 -2 -12 -3 -30
-8 -87 -39 -110 -60 -27 -25 -83 -36 -83 -17 0 5 -8 8 -17 7 -19 -3 -156 65
-185 91 -10 9 -18 13 -18 9 0 -3 -21 9 -47 27 -35 24 -61 34 -95 36 l-48 3 0
-54z"/>
<path d="M2828 4322 c-10 -2 -18 -8 -18 -13 0 -5 -10 -14 -23 -20 -13 -6 -24
-16 -25 -22 -10 -75 -9 -86 13 -111 12 -14 24 -23 27 -21 3 3 26 7 52 10 53 4
159 61 149 79 -4 6 -8 21 -9 34 -4 39 -49 69 -102 69 -26 0 -55 -2 -64 -5z"/>
<path d="M2341 4297 c-6 -8 -17 -29 -25 -48 -14 -33 -13 -35 30 -92 24 -31 44
-60 44 -63 0 -4 8 -14 18 -23 26 -22 73 -106 65 -114 -3 -4 -1 -7 6 -7 8 0 11
-8 8 -20 -3 -11 -2 -20 2 -20 6 0 5 -116 -1 -266 -3 -58 -2 -61 19 -58 13 1
23 -2 23 -8 0 -7 5 -7 13 -1 6 5 43 8 82 8 66 -1 71 0 95 29 35 43 48 56 55
56 3 0 16 10 28 23 33 34 104 87 116 87 6 0 11 5 11 10 0 6 6 10 14 10 8 0 16
3 18 8 2 4 39 25 83 47 44 22 82 43 85 47 3 3 22 9 43 13 20 4 37 11 37 16 0
5 3 8 8 7 6 -1 30 4 83 18 16 4 18 11 22 59 1 14 5 25 10 25 4 0 7 5 7 11 0 6
-7 9 -15 5 -8 -3 -15 -2 -15 2 0 4 -34 7 -75 7 -41 0 -75 -4 -75 -8 0 -4 -8
-3 -18 2 -10 5 -24 6 -31 2 -7 -4 -28 -7 -47 -6 -19 1 -34 -2 -34 -5 0 -4 -6
-7 -12 -7 -22 -1 -67 -11 -78 -18 -5 -3 -18 -8 -27 -10 -10 -2 -31 -8 -48 -15
-16 -6 -30 -10 -31 -8 0 2 -8 -3 -18 -11 -9 -8 -18 -12 -19 -10 -2 2 -14 21
-27 41 -14 21 -28 38 -32 38 -5 0 -8 5 -8 11 0 14 -96 107 -143 139 -20 14
-37 29 -37 33 0 5 -4 5 -10 2 -5 -3 -10 -3 -10 2 0 8 -54 36 -66 33 -4 -1 -10
3 -13 9 -4 6 -19 12 -34 13 -15 1 -27 6 -27 10 0 13 -37 9 -49 -5z"/>
<path d="M1958 3874 c-2 -1 -21 -5 -43 -8 -21 -4 -43 -12 -47 -19 -4 -6 -8 -8
-8 -4 0 20 -113 -78 -118 -103 -2 -8 -8 -18 -13 -21 -6 -3 -11 -16 -12 -27 -1
-12 -5 -22 -9 -22 -7 0 -19 -50 -24 -100 -1 -14 -3 -27 -4 -30 -6 -14 -4 -47
3 -64 6 -13 6 -16 -2 -12 -6 4 -11 5 -11 2 0 -8 46 -56 54 -56 3 0 14 -8 24
-17 27 -26 59 -46 67 -44 4 2 11 -2 15 -8 9 -16 47 -25 110 -25 46 -1 61 4 95
29 47 36 78 65 68 65 -4 0 2 6 13 14 11 8 38 50 60 92 34 68 39 85 38 143 -1
93 -38 152 -118 190 -35 16 -130 34 -138 25z"/>
<path d="M443 3795 c-29 -13 -54 -65 -51 -106 4 -48 56 -96 110 -103 52 -8
118 -4 118 6 0 4 6 5 14 2 11 -4 14 9 12 70 0 41 -3 76 -6 78 -62 46 -82 58
-89 53 -5 -3 -13 -1 -16 5 -8 12 -61 10 -92 -5z"/>
<path d="M40 3731 c0 -5 -8 -12 -18 -15 -17 -6 -18 -13 -13 -58 1 -3 28 -25
62 -48 33 -22 88 -69 122 -104 111 -113 112 -115 111 -176 -1 -30 -3 -57 -4
-60 -1 -3 -4 -21 -7 -40 -2 -19 -8 -37 -11 -40 -4 -3 -8 -21 -10 -40 -1 -19
-6 -37 -10 -40 -4 -3 -8 -9 -9 -15 -1 -5 -4 -27 -8 -48 l-7 -37 48 5 c27 2 61
6 77 9 19 3 27 0 27 -10 0 -8 4 -14 8 -14 5 0 14 -11 20 -25 11 -24 42 -35 42
-15 0 6 5 10 10 10 32 0 93 114 105 198 3 20 8 51 11 67 2 17 5 45 5 63 0 21
7 39 21 50 12 9 34 30 50 45 15 15 28 24 28 20 0 -4 8 5 18 22 26 42 28 102 5
108 -18 4 -85 -29 -91 -45 -2 -4 -10 -8 -18 -8 -8 0 -17 -7 -20 -15 -4 -8 -10
-12 -15 -9 -5 3 -9 0 -9 -5 0 -6 -7 -11 -15 -11 -8 0 -15 -5 -15 -10 0 -10
-28 -8 -60 4 -8 3 -28 8 -45 10 -17 3 -42 20 -58 38 -97 112 -214 218 -243
218 -8 0 -14 4 -14 8 0 5 -6 9 -12 9 -7 0 -23 3 -35 7 -14 4 -23 3 -23 -3z"/>
<path d="M877 3691 c-6 -14 -14 -28 -18 -31 -3 -3 -22 -29 -41 -59 l-35 -55
121 -100 c66 -56 152 -131 191 -168 38 -38 71 -68 72 -68 7 0 53 -53 53 -61 0
-5 7 -12 15 -15 8 -4 15 -13 15 -22 0 -8 3 -12 7 -9 7 7 34 -29 81 -109 21
-36 29 -65 31 -106 1 -32 -1 -58 -6 -58 -4 0 -9 -10 -9 -22 -3 -43 -13 -103
-33 -201 -22 -106 -23 -236 -1 -317 7 -25 13 -52 15 -60 9 -46 19 -76 27 -87
5 -7 7 -17 3 -23 -3 -5 -1 -10 6 -10 7 0 9 -3 6 -7 -4 -3 -2 -11 3 -18 5 -6
11 -20 13 -31 7 -42 24 -58 66 -59 23 -1 44 2 47 7 3 4 13 8 23 8 28 0 100 76
89 94 -2 2 5 13 15 23 9 11 14 23 10 26 -3 4 5 7 20 7 29 0 36 -8 39 -42 2
-26 12 -28 130 -32 56 -2 57 -3 60 -44 3 -36 9 -39 58 -36 47 3 68 9 111 29
37 18 39 27 22 75 -19 51 -21 240 -2 240 4 0 6 11 4 25 -1 14 2 28 6 31 5 3 9
0 9 -5 0 -6 5 -11 10 -11 15 0 100 -87 93 -94 -4 -3 -1 -6 5 -6 7 0 11 -3 10
-7 -1 -5 4 -21 11 -38 7 -16 12 -30 12 -30 0 0 4 -18 10 -40 19 -80 24 -168
20 -316 l-1 -47 -38 1 c-21 0 -43 -3 -50 -7 -7 -4 -12 -4 -12 1 0 6 -96 8
-179 4 -7 -1 -11 -7 -8 -15 3 -7 0 -19 -6 -26 -7 -7 -7 -10 -2 -7 6 3 10 -10
10 -34 0 -21 -4 -39 -10 -39 -7 0 -7 -3 0 -8 14 -10 14 -65 1 -74 -7 -5 -7 -8
-1 -8 14 0 14 -70 1 -70 -7 0 -8 -3 -1 -8 14 -10 14 -65 1 -74 -7 -5 -7 -8 -1
-8 14 0 14 -70 1 -70 -7 0 -8 -3 -1 -8 13 -9 16 -72 4 -72 -6 0 -6 -8 -2 -17
10 -22 10 -54 0 -71 -5 -6 -4 -12 0 -12 13 0 10 -93 -2 -102 -7 -5 -7 -11 0
-15 12 -9 13 -93 1 -111 -4 -7 -3 -12 1 -12 13 0 10 -93 -2 -102 -7 -5 -7 -11
0 -15 12 -9 13 -93 1 -111 -4 -7 -3 -12 3 -12 5 0 7 -18 5 -40 -4 -31 -1 -40
11 -41 20 -1 541 -1 559 0 13 1 14 39 1 60 -3 6 -2 11 3 11 10 0 9 30 -2 48
-4 6 -3 12 2 12 10 0 10 30 0 46 -4 5 -3 16 2 24 5 8 5 21 0 31 -5 9 -7 19 -4
21 10 11 12 48 2 48 -7 0 -6 6 2 15 7 8 8 15 3 15 -6 0 -10 8 -9 18 1 26 -25
112 -35 112 -5 0 -9 7 -9 15 0 8 -4 15 -10 15 -5 0 -10 5 -10 11 0 13 -61 65
-72 61 -4 -1 -8 3 -8 9 0 5 -4 7 -10 4 -24 -15 -7 14 17 31 53 34 119 114 106
128 -3 3 -1 6 5 6 6 0 14 17 19 38 9 44 10 50 13 60 1 4 1 12 0 17 -14 62 -14
235 0 235 3 0 6 13 7 29 3 48 41 187 62 231 10 22 15 37 10 34 -6 -3 7 21 27
53 35 56 90 118 105 118 4 0 11 4 16 8 4 5 23 15 42 23 27 11 36 12 42 2 4 -7
6 -15 3 -19 -2 -4 -6 -24 -8 -45 -3 -22 -8 -59 -12 -84 -13 -82 -11 -95 11
-92 11 2 22 8 23 13 2 5 7 9 12 9 5 0 21 5 37 12 15 6 31 11 36 10 4 -1 7 3 7
9 0 5 5 7 10 4 6 -4 17 -2 24 4 11 9 15 6 22 -16 4 -16 8 -32 8 -36 2 -15 30
-26 43 -16 7 6 17 8 22 5 5 -4 12 -2 16 4 4 6 11 8 16 5 5 -4 9 -3 10 2 0 4 3
24 5 43 6 57 12 95 15 100 1 3 3 10 4 15 2 6 4 12 5 15 1 3 4 18 6 34 3 16 10
38 15 48 5 10 7 23 4 28 -3 6 -1 10 4 10 6 0 10 3 10 8 -3 14 14 73 22 78 5 3
9 14 9 24 0 10 6 25 13 32 7 7 14 16 15 21 3 15 35 72 48 85 8 7 14 18 14 23
0 6 4 8 9 5 5 -3 12 1 15 9 3 8 9 14 13 13 14 -3 67 14 98 31 49 27 95 78 95
106 0 23 -3 24 -34 21 -35 -5 -127 -49 -159 -76 -10 -8 -19 -14 -20 -12 -1 2
-15 -3 -31 -12 -16 -8 -33 -13 -38 -10 -4 3 -8 0 -8 -6 0 -6 -4 -8 -10 -5 -5
3 -10 1 -10 -6 0 -7 -3 -10 -6 -7 -3 4 -22 -1 -42 -9 -20 -8 -46 -17 -57 -19
-55 -10 -68 -14 -72 -18 -3 -3 -16 -1 -30 5 -16 6 -22 6 -18 -1 4 -7 -3 -6
-20 0 -15 6 -30 8 -35 5 -9 -5 -52 30 -45 37 10 9 -136 148 -155 148 -5 0 -10
7 -10 16 0 8 -4 13 -8 10 -5 -3 -15 6 -22 19 -7 14 -17 25 -22 25 -4 0 -8 7
-8 15 0 11 -10 14 -42 12 -46 -2 -44 5 -39 -102 1 -18 12 -30 43 -46 53 -27
155 -128 164 -162 3 -15 11 -27 16 -27 6 0 8 -7 4 -15 -3 -8 -2 -15 2 -15 4 0
8 -8 9 -17 0 -10 3 -40 6 -67 4 -41 2 -49 -14 -53 -11 -3 -19 -10 -19 -16 0
-6 -3 -7 -7 -4 -3 4 -13 1 -21 -6 -13 -10 -14 -9 -7 3 7 12 6 13 -6 3 -8 -6
-34 -19 -59 -29 -25 -10 -50 -25 -57 -33 -7 -9 -13 -12 -13 -6 0 5 -7 0 -15
-12 -12 -18 -23 -21 -58 -18 -46 5 -52 7 -151 56 -98 48 -106 53 -106 61 0 5
-7 8 -15 8 -8 0 -15 5 -15 10 0 6 -10 10 -22 10 -12 0 -18 3 -15 6 6 7 -43 39
-75 50 -10 4 -18 11 -18 16 0 5 -4 6 -10 3 -5 -3 -10 -2 -10 4 0 6 -11 13 -25
17 -24 6 -24 7 -10 35 9 16 15 32 15 36 0 12 74 158 83 161 4 2 7 9 7 16 0 13
22 43 56 78 9 9 30 24 48 33 17 9 45 25 61 35 17 11 37 23 45 27 8 3 41 24 72
45 31 21 61 38 67 38 5 0 11 3 13 8 2 4 42 34 91 66 48 32 87 62 87 67 0 5 7
9 15 9 8 0 15 5 15 10 0 6 5 10 11 10 7 0 20 10 30 22 11 11 19 18 19 14 0 -4
14 8 32 26 18 18 35 33 38 33 3 -1 28 23 56 52 28 29 49 53 46 53 -3 0 4 8 14
18 40 35 84 113 82 143 -1 16 -5 29 -8 29 -4 0 -7 6 -8 13 -1 27 -12 60 -23
73 -6 8 -8 14 -4 14 4 0 2 7 -5 15 -6 8 -9 18 -6 23 3 5 0 16 -7 25 -10 14
-18 15 -52 6 -44 -12 -152 -66 -174 -87 -7 -7 -36 -24 -65 -39 -52 -26 -118
-72 -124 -85 -2 -5 -10 -8 -18 -8 -8 0 -17 -7 -20 -15 -4 -8 -11 -15 -16 -15
-6 0 -41 -19 -77 -43 -76 -50 -204 -128 -270 -165 -25 -14 -49 -29 -52 -34 -3
-6 -10 -10 -15 -10 -19 -1 -54 -22 -54 -31 0 -6 -3 -8 -6 -4 -3 3 -38 -11 -77
-32 -40 -21 -93 -45 -120 -54 l-47 -16 -33 35 c-72 79 -286 291 -328 326 -24
20 -55 46 -69 58 -14 12 -37 29 -52 38 -16 9 -28 20 -28 24 0 4 -5 8 -12 8 -6
0 -19 6 -27 14 -25 21 -150 86 -166 86 -8 0 -15 4 -15 8 0 10 -118 45 -129 38
-5 -4 -11 -2 -13 3 -1 5 -29 11 -61 14 -56 4 -59 3 -70 -22z"/>
<path d="M3055 2964 c-34 -11 -68 -45 -91 -89 -9 -17 -12 -88 -4 -105 1 -3 2
-8 1 -12 0 -5 4 -8 11 -8 6 0 8 -3 5 -6 -3 -4 10 -23 30 -43 31 -31 42 -36 84
-36 40 0 53 5 71 25 33 37 60 88 53 100 -3 6 -1 10 5 10 7 0 10 7 7 15 -4 8
-2 17 4 21 6 3 8 12 6 18 -3 7 -1 19 3 26 12 20 -8 54 -43 73 -41 22 -98 27
-142 11z"/>
<path d="M924 2959 c-48 -18 -59 -22 -66 -23 -19 -3 -22 -16 -31 -127 -4 -43
-2 -48 32 -75 40 -32 80 -39 131 -22 19 7 38 11 43 10 4 -1 7 2 7 7 0 5 11 11
23 15 21 5 24 11 21 53 -1 27 -3 48 -4 48 -1 0 -4 11 -6 25 -7 40 -28 80 -41
80 -7 0 -13 4 -13 8 0 10 -71 10 -96 1z"/>
<path d="M483 2798 c-28 -36 -21 -56 34 -112 31 -31 61 -56 68 -56 18 0 35
-24 41 -57 9 -45 12 -58 15 -58 1 0 3 -24 4 -52 1 -32 -2 -53 -9 -53 -6 0 -6
-4 2 -12 8 -8 8 -17 1 -30 -5 -10 -7 -23 -4 -28 3 -6 1 -10 -5 -10 -6 0 -8 -5
-5 -10 4 -6 2 -16 -3 -23 -5 -7 -12 -23 -15 -37 -3 -14 -8 -36 -11 -50 -4 -14
-8 -43 -10 -65 -2 -22 -5 -44 -7 -50 -6 -22 13 -131 26 -149 12 -15 17 -17 29
-7 10 8 16 9 21 1 4 -7 12 -7 25 0 10 5 26 7 34 4 10 -4 16 -1 17 7 0 8 2 22
5 32 2 9 5 25 7 34 4 19 34 26 44 10 4 -6 7 -28 8 -49 1 -21 4 -40 7 -43 10
-11 63 28 101 74 34 42 136 235 141 266 1 7 8 21 16 31 13 16 13 17 0 9 -10
-6 -9 -2 3 12 10 11 19 30 20 42 1 11 5 21 9 21 4 0 8 9 8 20 0 11 4 20 8 20
5 0 9 6 9 13 0 23 54 122 78 142 26 23 41 81 22 88 -10 4 -47 2 -104 -5 -7 -1
-13 -4 -13 -8 0 -3 -8 -6 -18 -7 -25 -2 -132 -53 -132 -64 0 -4 -8 -7 -17 -7
-10 0 -22 0 -28 -2 -27 -7 -48 4 -98 53 -30 28 -61 57 -68 62 -26 19 -142 75
-155 75 -8 0 -14 4 -14 8 0 4 -12 9 -26 10 -15 1 -32 7 -39 12 -9 7 -15 6 -22
-2z"/>
<path d="M2495 2663 c-40 -9 -72 -24 -73 -36 -2 -21 -13 -92 -16 -109 -2 -9 1
-19 8 -22 7 -3 7 -5 -2 -5 -9 -1 -10 -6 -3 -20 6 -10 8 -21 5 -23 -7 -8 18
-60 42 -83 52 -52 167 -10 206 75 14 30 18 99 6 106 -5 3 -6 9 -3 13 2 5 -6
20 -19 34 -13 14 -21 28 -18 31 3 3 3 6 1 6 -2 0 -29 9 -59 20 -30 11 -55 19
-55 19 0 -1 -9 -3 -20 -6z"/>
<path d="M627 1823 c-1 0 -22 -4 -47 -8 -83 -12 -97 -15 -136 -30 -83 -34
-173 -86 -182 -108 -2 -4 -8 -5 -13 -1 -5 3 -9 1 -9 -5 0 -5 -18 -27 -40 -49
-22 -21 -40 -44 -40 -50 0 -7 -4 -12 -8 -12 -8 0 -52 -81 -72 -135 -9 -25 -18
-62 -26 -115 -6 -38 -5 -142 1 -170 4 -14 9 -38 12 -55 3 -16 9 -38 14 -47 5
-10 6 -18 2 -18 -4 0 -3 -4 2 -8 6 -4 25 -36 44 -72 37 -71 170 -210 201 -210
5 0 10 -3 10 -8 0 -7 84 -47 86 -41 0 2 7 -1 15 -7 14 -11 59 -26 92 -29 9 -2
18 -4 20 -5 6 -7 684 -6 702 1 11 4 15 8 9 8 -6 1 -11 8 -11 16 0 8 5 15 11
15 6 0 5 4 -2 9 -8 4 -14 12 -14 16 0 4 6 12 14 16 7 5 8 9 2 9 -6 0 -11 7
-11 15 0 8 5 15 11 15 6 0 5 4 -2 9 -17 11 -17 21 0 32 7 5 8 9 2 9 -14 0 -14
30 0 30 6 0 5 4 -2 9 -17 11 -17 21 0 32 7 5 8 9 2 9 -6 0 -11 7 -11 15 0 8 5
15 11 15 7 0 7 3 1 8 -15 11 -17 32 -2 32 9 0 9 2 -1 9 -8 4 -14 12 -14 16 0
4 6 12 14 16 7 5 8 9 2 9 -6 0 -9 26 -7 71 l3 72 -23 -19 c-12 -10 -46 -42
-74 -71 -29 -29 -53 -51 -53 -49 0 2 -31 -26 -69 -63 -154 -148 -245 -231
-253 -231 -5 0 -7 -3 -5 -7 2 -5 -8 -18 -23 -30 l-27 -22 1 134 c0 74 -3 135
-7 135 -5 0 -5 5 -1 11 10 16 11 389 1 389 -5 0 -5 5 -1 11 10 16 11 149 1
149 -5 0 -5 5 -1 11 10 16 11 149 1 149 -5 0 -5 5 -1 12 4 7 7 37 7 67 0 31 1
59 3 63 3 4 38 -27 79 -68 40 -41 79 -74 84 -74 6 0 11 -7 11 -15 0 -8 4 -15
8 -15 4 0 44 -35 89 -77 192 -185 243 -231 246 -225 2 4 4 119 3 257 l-1 250
-313 0 c-172 0 -314 -1 -315 -2z"/>
<path d="M1359 1812 l-26 -3 1 -592 1 -591 265 -1 c146 0 273 1 282 3 14 3 16
14 14 63 -2 32 1 59 6 59 5 0 6 5 2 11 -10 17 -12 109 -2 109 5 0 6 5 2 11
-10 17 -12 109 -2 109 5 0 6 5 2 11 -10 17 -12 109 -2 109 5 0 6 5 2 11 -10
17 -12 109 -2 109 5 0 4 8 -1 18 -7 13 -6 23 1 30 8 8 8 12 2 12 -6 0 -11 7
-11 15 0 8 5 15 11 15 6 0 5 4 -2 9 -17 11 -17 21 0 32 7 5 8 9 2 9 -6 0 -11
7 -11 15 0 8 5 15 11 15 6 0 5 4 -2 9 -8 4 -14 12 -14 16 0 4 6 12 14 16 7 5
8 9 2 9 -14 0 -14 30 0 30 6 0 5 4 -2 9 -17 11 -17 21 0 32 7 5 8 9 2 9 -6 0
-11 7 -11 15 0 8 5 15 11 15 6 0 5 4 -2 9 -8 4 -14 12 -14 16 0 4 6 12 14 16
7 5 8 9 2 9 -14 0 -14 30 0 30 6 0 5 4 -2 9 -8 4 -14 12 -14 16 0 4 6 12 14
16 7 5 8 9 2 9 -6 0 -11 7 -11 15 0 8 5 15 11 15 6 0 5 4 -2 9 -8 4 -14 12
-14 16 0 4 6 12 14 16 9 6 9 9 1 9 -6 0 -10 9 -8 20 2 11 -2 20 -8 21 -39 2
-507 3 -528 1z"/>
<path d="M3265 1812 c-75 -4 -82 -9 -49 -34 16 -13 34 -28 39 -34 6 -6 26 -22
45 -35 19 -13 42 -31 50 -39 9 -8 35 -30 57 -48 23 -19 51 -41 62 -50 11 -10
36 -30 57 -47 20 -16 43 -36 50 -42 7 -7 14 -13 17 -13 4 0 75 -60 113 -96 13
-12 25 -19 28 -16 3 3 6 0 6 -6 0 -7 8 -12 18 -11 10 0 12 3 4 6 -6 2 -9 10
-5 16 11 18 11 80 0 95 -6 8 -6 12 0 12 6 0 8 12 6 28 -2 15 -4 34 -3 42 0 8
0 26 -1 40 0 14 0 30 0 35 6 83 6 105 -1 105 -5 0 -6 5 -2 12 5 7 8 26 9 44 0
30 -1 31 -50 33 -27 1 -51 4 -54 6 -2 2 -11 0 -21 -5 -10 -5 -20 -6 -24 -3 -5
6 -195 8 -221 3 -5 -1 -12 -1 -15 0 -10 4 -67 5 -115 2z"/>
<path d="M3897 1812 c-9 -2 -17 -7 -18 -10 -1 -4 -2 -269 -2 -589 -2 -574 -2
-582 18 -585 11 -2 290 -3 620 -3 l600 1 1 241 1 241 -34 -26 c-18 -15 -33
-31 -33 -35 0 -5 -4 -6 -9 -3 -5 3 -11 -1 -15 -9 -9 -24 -24 -17 -21 10 1 14
-3 25 -8 25 -7 0 -7 4 0 11 8 8 8 20 3 34 -5 13 -6 25 -3 29 10 10 9 86 -1 86
-7 0 -8 3 -1 8 9 6 11 22 5 47 -1 6 -1 15 0 20 7 28 6 72 -2 88 -5 10 -5 17 1
17 5 0 8 9 6 19 -3 14 1 18 11 14 8 -3 14 -10 14 -16 0 -6 3 -8 6 -4 3 3 16
-3 28 -14 54 -52 53 -57 53 184 l0 222 -56 -2 c-31 -1 -60 -2 -66 -3 -5 -1
-14 -2 -20 0 -13 2 -208 2 -220 0 -6 -2 -14 -1 -20 0 -22 4 -207 2 -212 -3 -3
-3 -11 -3 -19 0 -16 6 -578 10 -607 5z m693 -53 c0 -5 7 -9 15 -9 8 0 15 -3
15 -7 0 -5 20 -21 45 -36 25 -16 45 -34 45 -40 0 -5 3 -8 6 -4 4 3 12 1 19 -6
6 -7 24 -21 40 -32 15 -11 36 -28 47 -37 10 -10 22 -18 26 -18 5 0 17 -9 27
-20 10 -11 24 -20 32 -20 7 0 13 -4 13 -10 0 -5 16 -20 35 -32 33 -22 42 -43
18 -43 -6 0 -15 -4 -20 -8 -11 -11 -76 -41 -85 -39 -5 1 -8 -2 -8 -8 0 -5 -22
-19 -50 -31 -27 -12 -50 -25 -50 -30 0 -5 -9 -9 -20 -9 -11 0 -20 -5 -20 -11
0 -5 -4 -8 -9 -4 -5 3 -12 1 -15 -4 -4 -5 -27 -19 -54 -32 -26 -12 -50 -27
-54 -32 -12 -19 -34 16 -28 43 4 14 3 34 -1 46 -4 11 -3 27 1 34 5 8 6 18 3
23 -3 6 -5 30 -4 56 1 25 1 66 1 91 0 25 0 51 0 58 0 28 1 128 0 164 0 21 4
26 15 22 8 -4 15 -10 15 -15z m4 -570 c3 1 19 -5 35 -13 16 -9 31 -12 35 -9 3
4 6 1 6 -5 0 -7 4 -12 10 -12 5 0 34 -11 64 -25 30 -14 60 -25 65 -25 6 0 11
-5 11 -11 0 -5 5 -7 10 -4 6 3 10 1 10 -4 0 -6 8 -11 18 -11 9 0 32 -9 50 -20
18 -11 38 -20 45 -20 6 0 19 -5 27 -10 12 -8 9 -15 -20 -40 -45 -40 -55 -47
-114 -94 -28 -22 -59 -47 -70 -55 -11 -9 -30 -26 -43 -38 -13 -12 -23 -20 -23
-17 0 2 -13 -9 -30 -26 -16 -17 -30 -27 -30 -23 0 4 -9 -2 -20 -13 -59 -59
-77 -64 -74 -20 1 17 3 33 4 36 1 3 1 10 0 15 -7 29 -5 92 3 103 6 8 6 12 -2
12 -7 0 -8 8 -1 24 5 13 6 26 3 29 -9 9 -10 67 0 67 4 0 5 6 0 13 -11 17 -11
80 0 95 5 6 6 12 1 12 -11 0 -11 81 0 99 7 10 10 10 16 1 4 -6 10 -11 14 -11z"/>
<path d="M2928 1799 c-10 -5 -18 -8 -18 -5 0 3 -17 0 -37 -8 -45 -17 -71 -25
-78 -26 -9 0 -102 -88 -120 -112 -30 -41 -41 -70 -50 -123 -2 -11 -4 -22 -5
-25 -6 -15 -4 -67 3 -82 5 -12 4 -18 -5 -18 -8 0 -9 -3 -3 -8 6 -4 10 -11 11
-17 2 -27 28 -95 36 -95 5 0 7 -4 3 -10 -5 -8 14 -36 53 -76 6 -7 12 -18 12
-24 0 -6 4 -9 8 -6 4 2 17 -9 27 -25 11 -16 23 -29 27 -29 3 0 22 -15 40 -32
30 -29 81 -73 158 -137 41 -34 44 -36 80 -61 19 -14 40 -29 46 -35 6 -5 22
-17 34 -25 12 -8 28 -21 36 -28 7 -6 17 -12 23 -12 5 0 14 -6 18 -13 4 -6 28
-25 53 -42 25 -16 68 -46 95 -66 28 -20 59 -35 70 -33 11 1 40 5 65 7 25 3 54
9 65 12 33 12 88 37 99 46 6 5 23 19 39 30 32 24 89 104 80 113 -4 3 -1 6 5 6
7 0 12 11 12 25 0 14 4 25 9 25 5 0 8 8 7 18 -2 9 0 29 5 44 5 18 3 29 -4 32
-8 3 -8 5 1 5 7 1 10 6 6 13 -4 6 -8 25 -9 42 -5 73 -75 169 -194 266 -24 19
-49 41 -56 48 -8 6 -18 12 -23 12 -6 0 -12 4 -14 9 -1 5 -32 33 -68 62 -36 30
-66 57 -68 62 -2 4 -8 7 -13 7 -6 0 -20 10 -33 23 -13 12 -32 29 -42 37 -11 8
-41 33 -69 55 -27 22 -55 45 -61 50 -24 21 -61 51 -104 85 -25 19 -47 37 -50
40 -8 9 -63 6 -79 -4 -10 -6 -12 -5 -7 2 9 14 6 14 -16 1z"/>
<path d="M2624 873 c-1 -131 3 -240 7 -243 6 -4 529 -5 603 -1 14 1 2 14 -42
47 -34 25 -62 50 -62 55 0 5 -4 8 -9 7 -5 -2 -24 11 -42 27 -19 17 -49 40 -66
50 -18 11 -33 22 -33 25 0 4 -21 22 -47 40 -27 18 -55 41 -64 49 -9 9 -29 25
-45 36 -27 19 -77 60 -100 80 -6 5 -22 17 -34 25 -12 8 -28 21 -36 28 -7 6
-17 12 -21 12 -5 0 -9 -107 -9 -237z"/>
</g>
</svg>
